<svg width="391" height="141" viewBox="0 0 391 141" fill="none" xmlns="http://www.w3.org/2000/svg">
<path d="M390.839 70.2684C390.839 109.077 303.346 140.537 195.419 140.537C87.4922 140.537 0 109.077 0 70.2684C0 31.4602 87.4922 0 195.419 0C303.346 0 390.839 31.4602 390.839 70.2684Z" fill="#EFD631"/>
<path d="M141.601 73.9542C139.823 80.8843 137.758 87.1104 134.002 92.454C132.761 94.2192 129.782 94.7737 127.591 95.8757C127.374 95.6293 127.167 95.3833 126.951 95.127C127.49 93.6085 128.156 92.1251 128.549 90.5707C129.478 86.8652 130.27 83.1342 131.121 79.4056C131.171 79.1706 131.144 78.8631 131.28 78.691C133.028 76.404 133.637 73.9596 132.48 71.1927C131.987 70.0056 132.405 69.4701 133.667 68.8422C135.626 67.8785 137.112 66.4004 137.924 64.0438C138.838 61.3851 140.424 58.9627 139.968 55.9788C139.877 55.3523 139.786 54.7061 139.564 54.1235C138.612 51.6519 139.769 48.391 142.221 47.4286C143.357 46.983 144.748 47.2599 145.967 46.9562C150.942 45.6965 155.964 46.3262 160.952 46.6184C163.525 46.7679 165.28 51.7047 164.389 54.5225C162.014 62.0002 156.746 66.8839 149.911 71.4239C157.647 81.1816 151.301 74.5118 159.036 84.2794C156.932 85.6519 156.962 86.0979 159.207 87.4389C156.307 88.7083 154.118 87.2116 152.013 85.6097C142.703 78.5303 150.696 85.3758 143.812 76.1139C143.26 75.369 142.446 74.7709 141.601 73.9542ZM147.657 64.7562C152.373 63.0704 154.031 58.734 156.636 55.3472C156.929 54.9744 156.741 53.8102 156.363 53.4185C155.35 52.3772 151.803 52.5912 150.874 53.7472C148.368 56.901 146.875 60.3946 147.657 64.7562Z" fill="#FF0000"/>
<path d="M92.9477 64.012C91.0723 65.1176 89.3867 66.4092 87.4874 67.1482C85.4978 67.9229 83.2928 68.1844 81.1876 68.6577C77.3664 69.5122 73.5189 70.2865 69.7231 71.2409C66.9259 71.9514 67.0505 74.5852 66.2243 76.5757C66.3411 76.8475 66.458 77.1193 66.5744 77.4009C68.4859 77.0676 70.3983 76.7145 72.3094 76.3911C73.9718 76.1064 75.6518 75.8719 77.3147 75.5773C78.3802 75.3857 79.4388 75.1246 80.5056 74.9034C80.8246 74.838 81.2066 74.6863 81.4687 74.7963C84.7636 76.0834 87.8593 74.862 91.0285 74.2365C91.7162 74.0979 92.5973 74.9854 93.3901 75.3948C93.3306 75.6294 93.2716 75.8542 93.2221 76.0892C90.2127 76.1286 93.0689 79.6716 86.4386 77.8152C84.4505 77.8586 83.4414 78.3491 83.9138 80.4741C83.9992 80.5568 84.0456 80.628 84.113 80.6704C84.9513 81.1707 87.0957 80.2445 86.4958 82.0272C86.2009 82.9138 84.0266 83.3842 82.6314 83.6605C79.6419 84.2442 76.537 85.2183 73.6069 84.8756C69.4973 84.3838 66.1333 87.0266 63.6827 86.7934C59.4315 88.924 56.3214 90.4809 53.09 92.1017C51.8495 90.6059 51.7688 89.2586 52.788 87.3752C53.9794 85.1632 54.1395 82.3439 55.4922 80.287C56.8137 78.2684 57.4179 76.387 57.4783 74.0476C57.5174 72.4386 57.1552 71.435 55.918 70.3247C53.4149 68.0833 53.2424 66.1095 55.1778 64.9866C56.1303 64.4344 57.3627 63.8053 58.344 63.9658C61.7983 64.5285 62.0922 61.8137 62.93 59.7842C63.9 57.4343 64.6079 54.9744 65.4128 52.5581C66.0041 50.7454 67.5659 50.0414 69.133 49.6736C73.3555 48.6781 77.6873 48.132 81.8479 46.9659C85.9682 45.8179 89.8362 46.1809 94.0209 47.921C93.8724 48.389 93.8236 49.0687 93.4963 49.5587C91.5314 52.5282 88.2614 53.6632 85.2163 54.8572C81.9803 56.122 78.3709 56.4125 75.153 57.7176C73.5946 58.3428 72.5913 60.3157 71.3277 61.6748C71.5312 61.9997 71.7347 62.3246 71.9279 62.659C74.2292 62.2237 76.53 61.7983 78.8317 61.3532C79.4693 61.2323 80.091 61.0217 80.7269 60.9401C82.8932 60.6572 85.0652 60.4734 87.2134 60.1502C90.5833 59.6815 91.3547 60.1295 92.9477 64.012Z" fill="#FF0000"/>
<path d="M179.8 45.6285C180.803 51.5411 181.74 57.1248 182.687 62.7089C183.002 62.7421 183.317 62.7654 183.632 62.7987C184.426 60.629 185.202 58.4388 186.035 56.2806C187.169 53.3448 187.928 50.146 189.675 47.6415C190.485 46.4903 190.992 45.0495 191.941 44.1118C193.746 42.3312 195.931 42.9977 197.933 44.022C200.786 45.4681 201.206 46.5138 199.077 48.6857C196.608 51.2087 196.141 54.4991 194.877 57.4886C193.393 61.0023 192.035 64.5709 190.628 68.1176C190.595 68.1952 190.562 68.2729 190.539 68.3509C189.669 71.8218 188.937 75.3281 187.891 78.742C186.846 82.1658 185.557 85.51 184.238 88.8431C184.038 89.3582 182.911 90.0709 182.651 89.9215C181.329 89.1634 179.253 88.2742 179.101 87.2005C178.69 84.337 177.879 81.5651 178.54 78.3621C179.2 75.1787 177.901 71.5757 177.355 68.1728C177.293 67.765 176.575 67.4675 176.117 67.0823C174.374 72.255 172.695 77.3217 170.958 82.3563C170.315 84.2261 169.466 86.0377 168.784 87.896C167.656 90.9506 166.798 94.1354 165.389 97.0594C164.716 98.4536 163.037 99.37 161.761 100.561C161.156 99.4477 160.509 98.175 159.78 96.958C158.194 94.3111 158.45 91.7824 159.617 88.9765C161.446 84.5684 162.663 79.897 164.521 75.5C166.356 71.1811 167.01 66.5152 169.462 62.3215C171.764 58.398 172.989 53.7961 174.421 49.4106C175.456 46.2432 176.847 45.1367 179.8 45.6285Z" fill="#FF0000"/>
<path d="M123.13 87.2911C120.782 86.2915 120.762 87.6741 120.691 89.1039C120.218 89.0837 119.58 89.2047 119.489 89.0328C118.418 87.0403 115.888 86.1219 116.015 83.1529C116.166 79.6119 115.567 76.0486 115.257 71.974C113.308 72.2662 111.259 72.5739 109.21 72.8816C106.565 73.2725 106.01 75.3931 105.436 77.4833C105.39 77.6394 105.41 77.8675 105.308 77.9521C101.035 81.7419 100.929 87.696 97.9031 92.132C96.9962 93.4668 96.1365 94.853 94.0624 93.9047C93.9826 94.3855 93.7886 94.7626 93.9079 94.9752C95.4436 97.8868 93.3557 99.8035 91.76 101.534C91.0037 102.351 88.6506 102.844 87.9623 102.3C86.9968 101.538 85.4993 100.278 86.677 98.1544C89.194 93.5978 91.538 88.9251 93.5805 84.1407C95.5583 79.4821 98.3682 75.0072 97.9268 69.6127C97.7581 67.5501 98.7626 66.0119 100.141 64.7467C102.897 62.2261 104.241 58.9929 105.591 55.6019C107.085 51.8515 109.192 48.3347 111.085 44.7495C111.246 44.4402 111.746 44.3133 112.1 44.1209C115.563 42.1543 121.342 45.4448 121.519 49.3952C121.621 51.6328 121.82 53.9042 122.371 56.0523C122.566 56.7919 123.927 57.5615 124.86 57.7002C127.501 58.0997 128.423 59.1865 127.9 61.7137C127.726 62.5363 126.479 63.5107 128.11 64.1931C127.852 64.6663 127.652 65.1913 127.318 65.602C127.027 65.9551 126.553 66.1622 126.184 66.4725C124.308 68.0623 122.795 69.47 123.275 72.5736C123.71 75.3492 122.683 78.3488 122.351 81.2596C122.254 82.135 122.255 83.0441 122.365 83.9184C122.492 84.8922 122.797 85.8539 123.13 87.2911ZM110.307 62.0092C113.176 62.4085 115.423 62.0796 115.932 60.3425C116.64 57.8825 116.313 55.1313 116.426 52.4977C116.094 52.3946 115.762 52.3014 115.421 52.1978C113.795 55.3201 112.17 58.4326 110.307 62.0092Z" fill="#FF0000"/>
<path d="M44.52 51.6142C47.142 47.6056 49.3251 43.9241 51.9 40.5558C52.6116 39.6277 54.4916 39.5697 55.8516 39.193C56.3914 39.0481 57.0021 39.094 57.5738 39.1283C58.8548 39.2127 60.144 39.337 61.4237 39.4509C61.236 41.3007 63.3255 42.8129 61.4991 45.0867C57.7416 49.7682 54.6534 54.9723 51.0204 59.748C49.1366 62.207 48.4229 65.0323 47.6419 67.8152C46.8019 70.8229 46.5872 73.9956 46.0299 77.0944C45.8479 78.1143 45.4013 79.0834 45.1701 80.1012C44.599 82.5967 44.1158 85.1156 43.5349 87.6106C43.3408 88.4521 42.9516 89.2359 42.5818 90.2577C38.3311 86.1332 39.1455 92.0476 36.789 92.6189C36.4999 91.984 35.7647 91.1521 35.8555 90.4149C36.1546 87.809 35.4246 85.2382 36.0415 82.5965C37.1675 77.7532 37.5986 72.7517 38.8314 67.9525C40.5872 61.0906 38.3196 55.4204 34.7454 49.8031C33.6068 48.0054 33.373 45.6139 32.8521 43.4671C32.76 43.0777 33.2026 42.4346 33.5621 42.114C36.0902 39.8405 38.5229 40.2607 40.026 43.2401C41.1646 45.5022 42.2216 47.8202 43.37 50.0828C43.6801 50.6889 44.2019 51.1954 44.52 51.6142Z" fill="#FF0000"/>
<path d="M219.779 90.7631C216.252 88.1114 215.688 84.2707 216.751 80.7963C217.764 77.4769 217.759 73.8378 218.25 69.9386C217.548 70.5556 216.889 70.9059 216.568 71.4501C214.217 75.4677 211.914 79.5114 209.647 83.5799C208.838 85.0403 208.373 86.7353 207.374 88.0206C206.157 89.6008 204.536 90.868 202.894 92.4553C200.387 90.5972 200.557 87.8066 200.603 85.4438C200.68 81.7141 200.663 77.6904 202.059 74.3689C203.805 70.1944 202.596 66.0306 203.435 61.9333C204.3 57.7083 204.528 53.3425 205.139 49.0553C205.26 48.1735 205.708 46.6979 206.159 46.6339C207.061 46.5157 208.199 47.0019 209.016 47.5584C211.817 49.4837 212.883 52.1478 212.301 55.5619C211.765 58.6995 211.475 61.8782 211.077 65.0332C211.34 65.1067 211.602 65.19 211.865 65.2635C214.144 61.257 216.384 57.2355 218.72 53.2564C219.658 51.6511 220.271 49.6622 222.562 49.3259C224.071 49.1029 225.005 49.3718 225.133 51.2324C225.364 54.4365 225.85 57.6222 226.245 61.0484C227.782 58.2889 229.168 55.5306 230.812 52.956C231.917 51.2306 232.696 48.9702 235.35 48.8613C235.624 48.8454 235.933 48.5518 236.154 48.3176C238.327 46.0313 240.391 43.6507 242.679 41.4898C243.674 40.5568 245.103 40.0919 246.329 39.3998C247.642 38.6581 248.956 37.9066 250.269 37.1649C251.365 36.5471 252.471 35.9305 253.609 35.2979C254.539 37.9953 254.968 38.1098 257.07 36.3891C258.048 35.5851 259.061 34.8258 260.022 33.9995C260.316 33.7443 260.496 33.3537 260.929 32.7228C261.205 35.0054 260.793 35.6388 256.347 38.4449C255.153 39.2015 253.915 41.1117 251.827 39.5182C250.866 42.6727 248.907 44.9356 245.978 46.421C245.322 46.7516 244.897 47.5648 244.395 48.1869C242.737 50.2256 240.835 52.1227 239.487 54.3416C237.207 58.1161 235.293 62.1081 233.182 65.9845C232.277 67.6445 231.145 69.195 230.315 70.8947C228.047 75.5375 225.977 80.2859 223.643 84.8902C222.609 86.937 221.134 88.7266 219.779 90.7631Z" fill="#FF0000"/>
<path d="M353.663 64.2765C358.85 64.2247 363.196 61.0129 368.143 63.511C365.55 64.2525 362.22 62.3614 360.486 66.1241C365.186 65.8597 369.419 65.6171 373.662 65.3857C373.752 65.7095 373.851 66.0445 373.941 66.3684C373.42 66.7461 372.935 67.3906 372.383 67.4521C368.971 67.8183 365.554 68.053 362.133 68.3274C361.889 68.347 361.501 68.2275 361.405 68.3465C360.222 69.9007 358.818 70.641 356.881 69.772C356.743 70.5508 356.593 71.3383 356.361 72.6193C353.951 73.1924 350.918 73.6669 348.095 74.7122C346.963 75.134 346.06 76.7033 345.45 77.9468C342.926 83.0917 340.631 88.346 338.071 93.466C337.183 95.2388 335.755 96.732 334.585 98.3383C333.232 97.5531 334.691 94.8543 332.64 95.9363C329.674 88.5979 334.27 83.0792 337.16 76.9424C335.407 77.0138 333.86 76.8994 332.376 77.1559C327.689 77.9562 326.491 81.867 325.057 85.5668C323.659 89.1401 322.71 93.0722 319.159 95.2554C317.508 96.277 315.62 96.8655 314.777 98.8356C314.491 99.5051 314.12 100.134 313.386 101.553C312.929 100.225 312.44 99.4683 312.443 98.7228C312.452 94.4101 314.318 90.6438 316.124 86.87C317.477 84.0471 318.707 81.1683 320.062 78.3355C321.059 76.2639 322.312 74.3153 321.398 71.8113C321.293 71.526 322.2 70.7231 322.769 70.3714C325.316 68.7975 326.457 66.4619 326.97 63.5835C327.381 61.2868 328.147 59.0451 328.871 56.8181C329.48 54.9495 335.902 52.7755 336.972 54.2811C337.887 55.5757 338.169 57.8185 337.788 59.4033C337.184 61.8772 335.709 64.1406 334.732 66.5372C334.41 67.3332 334.481 68.2896 334.375 69.1329C340.549 69.2458 343.247 65.2719 345.494 60.4753C346.82 57.6387 347.058 54.0705 350.315 52.3745C351.642 51.6849 352.976 50.8553 354.413 50.5727C354.971 50.4616 356.37 51.6761 356.383 52.2925C356.401 53.9075 355.912 55.5492 355.529 57.1539C354.968 59.4417 354.342 61.6911 353.663 64.2765Z" fill="#FF0000"/>
<path d="M260.182 95.0684C257.827 93.7637 257.813 95.3141 257.505 96.9585C256.782 96.4542 256.202 96.1795 255.783 95.7437C252.708 92.5541 252.967 88.5753 253.295 84.6152C253.442 82.8901 253.719 81.1712 254.009 78.8694C251.518 79.0393 249.416 79.1674 247.319 79.3266C244.644 79.5236 243.87 81.583 243.134 83.6673C243.084 83.8223 243.075 84.053 242.964 84.1298C238.326 87.5869 237.738 93.6107 234.304 97.8244C233.28 99.0761 232.292 100.433 230.282 99.2728C230.158 99.7713 229.941 100.137 230.042 100.371C231.386 103.464 229.053 105.186 227.306 106.81C226.484 107.573 224.029 107.858 223.411 107.246C222.523 106.368 221.092 105.009 222.471 102.945C225.401 98.5671 228.158 94.0463 230.612 89.3764C232.998 84.8391 236.218 80.5582 236.214 75.0746C236.206 72.9772 237.358 71.5098 238.865 70.3491C241.858 68.0351 243.485 64.8838 245.132 61.5737C246.954 57.9128 249.373 54.549 251.585 51.0782C251.774 50.7795 252.288 50.6932 252.662 50.5286C256.323 48.833 261.879 52.6477 261.729 56.6403C261.645 58.9075 261.656 61.2171 262.032 63.4315C262.168 64.1944 263.477 65.0851 264.407 65.3031C267.039 65.9271 267.88 67.0914 267.14 69.6086C266.896 70.4245 265.546 71.3025 267.145 72.129C266.845 72.5851 266.608 73.1096 266.228 73.485C265.904 73.8171 265.409 73.9865 265.01 74.2689C262.954 75.7131 261.354 77.0535 261.561 80.2042C261.747 83.0498 260.47 85.9831 259.892 88.8936C259.721 89.7692 259.667 90.6795 259.705 91.5714C259.759 92.586 259.976 93.581 260.182 95.0684ZM249.845 68.6386C252.378 69.0182 254.612 69.0477 255.323 66.92C256.113 64.5703 256.061 61.9432 256.378 59.4331C256.128 59.3311 255.868 59.2378 255.619 59.1359C253.157 61.7989 251.169 64.7737 249.845 68.6386Z" fill="#FF0000"/>
<path d="M307.749 43.4916C308.292 44.6184 308.847 45.7365 309.367 46.8099C304.221 50.9289 298.262 52.6271 291.842 53.1887C291.036 53.2586 289.954 54.1704 289.613 54.9539C287.553 59.623 285.666 64.3642 283.74 69.0905C281.451 74.6983 279.124 80.2812 276.922 85.9201C276.416 87.217 276.534 88.7539 276.058 90.0545C275.388 91.8548 274.417 93.5568 273.583 95.2962C273.271 95.2165 272.957 95.1468 272.635 95.0658C272.561 94.1293 272.479 93.1816 272.397 92.0726C271.679 91.9317 270.892 91.7821 270.054 91.6262C269.175 95.3253 268.386 98.8644 267.45 102.375C267.128 103.574 266.498 104.734 265.821 105.788C265.669 106.031 264.564 106.002 264.217 105.717C262.863 104.619 263.154 102.237 264.604 100.887C265.427 100.114 266.794 99.4197 265.209 98.0004C264.928 97.7533 265.15 96.7129 265.401 96.1599C266.148 94.4701 267.028 92.8474 267.851 91.1973C267.919 91.0547 267.981 90.8811 267.982 90.7199C268.04 85.2947 270.23 80.2387 272.327 75.5945C274.259 71.3024 274.417 66.6053 276.644 62.5318C277.259 61.4099 277.845 60.2036 278.081 58.9635C278.496 56.7177 277.281 55.718 275.022 56.2093C274.317 56.3624 273.611 56.6867 272.905 56.6885C270.107 56.6583 269.466 56.0636 269.815 53.2955C270.073 51.2516 270.615 49.1932 271.352 47.2603C271.787 46.1258 272.575 46.1142 274.088 46.587C276.357 47.2963 279.085 46.8438 281.565 46.5214C285.869 45.9552 290.14 45.0925 294.432 44.3935C297.086 43.9621 299.745 43.5815 302.409 43.2319C304.254 42.9907 306.105 42.8611 307.952 42.6806C307.868 42.9422 307.804 43.2163 307.749 43.4916Z" fill="#FF0000"/>
<path d="M315.658 53.8888C315.806 54.6332 315.855 55.2844 316.083 55.8775C317.456 59.538 316.247 64.0119 313.166 66.3853C312.417 66.9663 311.588 67.4666 310.875 68.0922C309.097 69.6421 307.572 69.1878 306.381 67.4353C305.548 66.2114 305.022 66.0645 304.133 67.3635C301.551 71.1303 298.642 74.7046 296.362 78.6404C294.943 81.1023 294.426 84.0811 293.34 87.3408C299.832 83.9761 304.636 79.8444 308.56 74.624C309.224 73.7503 310.792 73.5447 311.935 73.0336C312.07 73.2421 312.214 73.4618 312.349 73.6703C312.14 74.1278 311.932 74.5753 311.639 75.2237C312.512 75.1725 313.274 75.1274 313.741 75.0956C313.381 83.0732 307.182 86.8376 301.857 91.2565C299.776 92.9798 297.649 94.657 295.488 96.2896C294.875 96.7566 293.979 97.3896 293.392 97.2451C291.262 96.7145 289.396 96.8826 287.588 98.1968C287.41 98.3256 286.489 97.8769 286.362 97.5282C285.565 95.3717 284.281 93.1638 284.294 90.9783C284.314 83.7843 286.929 77.5927 291.135 71.5713C294.183 67.2183 297.043 62.7609 301.201 59.596C304.567 57.0368 308.673 55.4074 312.545 53.557C313.296 53.1981 314.487 53.7413 315.658 53.8888Z" fill="#FF0000"/>
</svg>
