<svg width="213" height="77" viewBox="0 0 213 77" fill="none" xmlns="http://www.w3.org/2000/svg">
<path d="M213 38.295C213 59.4448 165.318 76.59 106.5 76.59C47.6817 76.59 0 59.4448 0 38.295C0 17.1453 47.6817 0 106.5 0C165.318 0 213 17.1453 213 38.295Z" fill="#006AE3"/>
<path d="M77.1702 40.3037C76.201 44.0805 75.0759 47.4736 73.0288 50.3858C72.3522 51.3478 70.7291 51.65 69.5348 52.2506C69.4167 52.1163 69.3039 51.9822 69.186 51.8425C69.4799 51.015 69.843 50.2065 70.0569 49.3594C70.5633 47.34 70.9948 45.3066 71.4587 43.2746C71.4857 43.1465 71.4713 42.979 71.5453 42.8852C72.4979 41.6388 72.8295 40.3067 72.1993 38.7988C71.9307 38.1518 72.1586 37.86 72.8464 37.5178C73.9136 36.9925 74.7235 36.187 75.1662 34.9027C75.6643 33.4538 76.5285 32.1336 76.2803 30.5074C76.2303 30.166 76.1807 29.8138 76.0596 29.4963C75.541 28.1494 76.1716 26.3722 77.5081 25.8477C78.127 25.6049 78.8853 25.7558 79.5493 25.5903C82.2606 24.9038 84.9978 25.247 87.716 25.4062C89.1181 25.4877 90.0748 28.1782 89.5891 29.7138C88.2948 33.789 85.4237 36.4505 81.699 38.9247C85.9146 44.2425 82.4564 40.6076 86.6718 45.9307C85.5251 46.6788 85.5416 46.9218 86.7652 47.6527C85.1846 48.3444 83.9916 47.5287 82.8442 46.6557C77.7704 42.7976 82.1268 46.5283 78.3747 41.4807C78.0743 41.0748 77.6305 40.7488 77.1702 40.3037ZM80.4703 35.291C83.0407 34.3722 83.9441 32.009 85.3639 30.1633C85.5234 29.96 85.4213 29.3256 85.215 29.1121C84.663 28.5446 82.7301 28.6613 82.2239 29.2913C80.8579 31.01 80.0441 32.914 80.4703 35.291Z" fill="white"/>
<path d="M50.6549 34.8854C49.6329 35.4879 48.7142 36.1918 47.6791 36.5946C46.5948 37.0168 45.3932 37.1593 44.2458 37.4172C42.1633 37.8829 40.0666 38.3049 37.9979 38.825C36.4735 39.2122 36.5414 40.6476 36.0911 41.7324C36.1548 41.8805 36.2184 42.0286 36.2819 42.1821C37.3236 42.0005 38.3659 41.808 39.4074 41.6318C40.3134 41.4766 41.2289 41.3488 42.1352 41.1883C42.7159 41.0838 43.2928 40.9416 43.8742 40.821C44.048 40.7853 44.2562 40.7027 44.399 40.7627C46.1947 41.4641 47.8818 40.7984 49.6089 40.4576C49.9837 40.382 50.4639 40.8657 50.896 41.0888C50.8636 41.2167 50.8314 41.3392 50.8044 41.4673C49.1643 41.4887 50.721 43.4196 47.1076 42.4079C46.0241 42.4316 45.4741 42.6989 45.7316 43.8569C45.7781 43.902 45.8034 43.9408 45.8401 43.9639C46.297 44.2365 47.4656 43.7318 47.1387 44.7033C46.978 45.1865 45.7931 45.4429 45.0327 45.5935C43.4035 45.9116 41.7113 46.4424 40.1145 46.2557C37.8749 45.9876 36.0415 47.4279 34.706 47.3008C32.3891 48.462 30.6942 49.3104 28.9331 50.1938C28.2571 49.3786 28.2131 48.6443 28.7686 47.6179C29.4179 46.4124 29.5051 44.8759 30.2423 43.755C30.9625 42.6548 31.2918 41.6295 31.3247 40.3546C31.346 39.4777 31.1486 38.9308 30.4744 38.3257C29.1102 37.1042 29.0162 36.0285 30.071 35.4165C30.59 35.1156 31.2617 34.7727 31.7965 34.8602C33.679 35.1668 33.8392 33.6873 34.2958 32.5813C34.8244 31.3007 35.2102 29.96 35.6489 28.6432C35.9711 27.6553 36.8222 27.2716 37.6763 27.0712C39.9775 26.5287 42.3382 26.2311 44.6057 25.5956C46.8512 24.9699 48.9592 25.1677 51.2397 26.1161C51.1588 26.3711 51.1322 26.7416 50.9539 27.0086C49.883 28.6269 48.101 29.2455 46.4414 29.8962C44.6778 30.5855 42.7108 30.7438 40.9571 31.4551C40.1078 31.7957 39.561 32.871 38.8724 33.6117C38.9833 33.7887 39.0942 33.9658 39.1995 34.148C40.4536 33.9108 41.7076 33.679 42.9619 33.4364C43.3094 33.3705 43.6482 33.2557 43.9948 33.2113C45.1754 33.0571 46.359 32.9569 47.5298 32.7808C49.3663 32.5254 49.7867 32.7695 50.6549 34.8854Z" fill="white"/>
<path d="M97.9883 24.8667C98.5345 28.0889 99.0453 31.132 99.5614 34.1752C99.733 34.1933 99.9048 34.206 100.076 34.2241C100.509 33.0417 100.932 31.8481 101.386 30.6719C102.004 29.072 102.417 27.3286 103.37 25.9638C103.811 25.3364 104.087 24.5511 104.604 24.0401C105.588 23.0697 106.779 23.433 107.87 23.9912C109.425 24.7793 109.654 25.3491 108.494 26.5328C107.148 27.9078 106.894 29.701 106.205 31.3303C105.396 33.2452 104.656 35.19 103.889 37.1228C103.871 37.1652 103.853 37.2075 103.841 37.25C103.367 39.1416 102.967 41.0524 102.398 42.913C101.828 44.7789 101.125 46.6014 100.407 48.4179C100.298 48.6986 99.6834 49.087 99.5415 49.0056C98.8214 48.5924 97.6896 48.1079 97.6069 47.5227C97.3828 45.9621 96.9412 44.4515 97.3012 42.7059C97.6608 40.971 96.953 39.0075 96.6553 37.1529C96.6217 36.9307 96.2302 36.7686 95.9806 36.5586C95.0308 39.3777 94.1158 42.1389 93.1691 44.8827C92.8186 45.9017 92.3564 46.889 91.9846 47.9017C91.3695 49.5664 90.9022 51.3021 90.134 52.8956C89.7676 53.6554 88.8523 54.1549 88.1568 54.8037C87.8273 54.1972 87.4746 53.5036 87.0775 52.8404C86.2129 51.3978 86.3525 50.0198 86.9887 48.4906C87.9854 46.0883 88.6489 43.5424 89.6614 41.1461C90.6614 38.7924 91.0178 36.2496 92.3541 33.9641C93.6087 31.8259 94.276 29.3179 95.0567 26.9279C95.6205 25.2017 96.3787 24.5987 97.9883 24.8667Z" fill="white"/>
<path d="M67.104 47.5721C65.824 47.0273 65.8134 47.7808 65.7747 48.56C65.5167 48.549 65.1692 48.6149 65.1193 48.5213C64.5357 47.4354 63.1569 46.9349 63.226 45.3168C63.3085 43.387 62.9822 41.4451 62.8132 39.2245C61.7509 39.3838 60.6344 39.5515 59.5178 39.7191C58.0762 39.9322 57.7737 41.0879 57.4611 42.227C57.436 42.3121 57.4468 42.4364 57.391 42.4825C55.0624 44.5479 55.0045 47.7927 53.3556 50.2103C52.8613 50.9377 52.3928 51.6932 51.2625 51.1764C51.2189 51.4384 51.1132 51.6439 51.1783 51.7598C52.0152 53.3465 50.8773 54.3911 50.0077 55.3341C49.5955 55.7796 48.3131 56.0479 47.938 55.7518C47.4119 55.3362 46.5957 54.6497 47.2376 53.4924C48.6092 51.0091 49.8867 48.4626 50.9998 45.8552C52.0777 43.3163 53.6091 40.8776 53.3685 37.9377C53.2765 36.8136 53.824 35.9753 54.5751 35.2858C56.0771 33.9121 56.8094 32.1501 57.5454 30.302C58.3598 28.2581 59.508 26.3415 60.5393 24.3877C60.6273 24.2191 60.8995 24.1499 61.0925 24.0451C62.9801 22.9733 66.1293 24.7666 66.2257 26.9195C66.2813 28.1389 66.39 29.3768 66.69 30.5475C66.7966 30.9506 67.538 31.37 68.0464 31.4456C69.4857 31.6633 69.9882 32.2556 69.7031 33.6328C69.6086 34.0812 68.9289 34.6122 69.8177 34.9841C69.6774 35.2419 69.5683 35.5281 69.3864 35.7519C69.2274 35.9443 68.9694 36.0572 68.7683 36.2263C67.7458 37.0927 66.9213 37.8599 67.1829 39.5513C67.4199 41.064 66.8599 42.6987 66.679 44.285C66.6263 44.7621 66.6267 45.2575 66.6871 45.734C66.756 46.2647 66.9221 46.7888 67.104 47.5721ZM60.1157 33.7939C61.6789 34.0115 62.9037 33.8323 63.1811 32.8855C63.5669 31.5449 63.3887 30.0456 63.45 28.6103C63.2693 28.5541 63.0884 28.5033 62.9023 28.4469C62.0164 30.1485 61.1307 31.8447 60.1157 33.7939Z" fill="white"/>
<path d="M24.2626 28.1288C25.6915 25.9442 26.8813 23.9378 28.2845 22.1022C28.6723 21.5964 29.6969 21.5648 30.4381 21.3595C30.7323 21.2805 31.0651 21.3055 31.3767 21.3242C32.0748 21.3702 32.7774 21.4379 33.4748 21.5001C33.3725 22.5081 34.5113 23.3323 33.5159 24.5715C31.4681 27.1228 29.7851 29.9589 27.8052 32.5616C26.7785 33.9017 26.3896 35.4415 25.964 36.9581C25.5062 38.5972 25.3892 40.3263 25.0854 42.0151C24.9863 42.5709 24.7429 43.0991 24.6169 43.6537C24.3056 45.0137 24.0423 46.3865 23.7257 47.7462C23.6199 48.2048 23.4078 48.632 23.2063 49.1888C20.8897 46.9411 21.3336 50.1643 20.0493 50.4756C19.8918 50.1296 19.4911 49.6763 19.5406 49.2745C19.7036 47.8543 19.3057 46.4533 19.6419 45.0136C20.2556 42.3741 20.4906 39.6484 21.1624 37.0329C22.1193 33.2933 20.8835 30.2031 18.9356 27.1418C18.3151 26.1621 18.1877 24.8588 17.9038 23.6888C17.8536 23.4766 18.0948 23.1261 18.2907 22.9514C19.6685 21.7124 20.9943 21.9414 21.8134 23.5651C22.4339 24.7979 23.01 26.0612 23.6359 27.2942C23.8048 27.6246 24.0892 27.9006 24.2626 28.1288Z" fill="white"/>
<path d="M119.775 49.4643C117.854 48.0191 117.546 45.926 118.125 44.0326C118.677 42.2236 118.675 40.2403 118.943 38.1153C118.56 38.4515 118.2 38.6425 118.026 38.939C116.745 41.1286 115.489 43.3323 114.254 45.5496C113.813 46.3454 113.559 47.2692 113.015 47.9696C112.352 48.8308 111.468 49.5215 110.574 50.3865C109.207 49.3738 109.3 47.853 109.325 46.5653C109.367 44.5327 109.358 42.3399 110.119 40.5297C111.07 38.2547 110.411 35.9855 110.868 33.7526C111.34 31.45 111.464 29.0707 111.797 26.7343C111.863 26.2537 112.107 25.4496 112.353 25.4146C112.845 25.3503 113.465 25.6152 113.91 25.9185C115.437 26.9678 116.017 28.4196 115.7 30.2803C115.408 31.9902 115.25 33.7225 115.033 35.4419C115.177 35.482 115.319 35.5274 115.463 35.5674C116.704 33.384 117.925 31.1924 119.198 29.0238C119.71 28.1489 120.044 27.065 121.292 26.8817C122.115 26.7602 122.624 26.9067 122.694 27.9207C122.82 29.6669 123.084 31.4031 123.299 33.2703C124.137 31.7664 124.892 30.2632 125.789 28.8601C126.39 27.9197 126.815 26.6879 128.262 26.6285C128.411 26.6199 128.579 26.4598 128.7 26.3322C129.884 25.0862 131.009 23.7888 132.256 22.6112C132.798 22.1027 133.577 21.8494 134.245 21.4722C134.961 21.068 135.677 20.6584 136.392 20.2542C136.99 19.9175 137.592 19.5815 138.212 19.2367C138.719 20.7068 138.953 20.7692 140.098 19.8314C140.632 19.3933 141.184 18.9795 141.707 18.5291C141.868 18.39 141.966 18.1772 142.201 17.8334C142.352 19.0773 142.127 19.4225 139.705 20.9518C139.054 21.3641 138.379 22.4051 137.241 21.5367C136.717 23.2559 135.65 24.4891 134.054 25.2986C133.696 25.4788 133.464 25.922 133.191 26.261C132.287 27.3721 131.251 28.4059 130.516 29.6152C129.274 31.6723 128.231 33.8478 127.08 35.9604C126.587 36.865 125.97 37.71 125.518 38.6363C124.282 41.1666 123.154 43.7544 121.882 46.2637C121.318 47.3791 120.514 48.3544 119.775 49.4643Z" fill="white"/>
<path d="M192.74 35.0295C195.567 35.0013 197.936 33.2509 200.631 34.6123C199.218 35.0165 197.404 33.9858 196.459 36.0364C199.02 35.8923 201.327 35.7601 203.639 35.634C203.688 35.8105 203.742 35.9931 203.791 36.1696C203.507 36.3754 203.243 36.7267 202.942 36.7602C201.083 36.9597 199.221 37.0876 197.356 37.2372C197.223 37.2479 197.012 37.1828 196.96 37.2476C196.314 38.0946 195.55 38.4981 194.494 38.0245C194.419 38.4489 194.337 38.8781 194.211 39.5762C192.897 39.8886 191.244 40.1471 189.706 40.7168C189.089 40.9467 188.597 41.8019 188.264 42.4796C186.889 45.2835 185.638 48.147 184.243 50.9373C183.759 51.9035 182.98 52.7172 182.343 53.5926C181.606 53.1647 182.401 51.6939 181.283 52.2836C179.667 48.2843 182.171 45.2767 183.746 41.9322C182.791 41.9712 181.948 41.9088 181.139 42.0486C178.585 42.4847 177.932 44.6161 177.15 46.6324C176.389 48.5797 175.871 50.7227 173.936 51.9125C173.037 52.4692 172.007 52.79 171.548 53.8636C171.392 54.2285 171.19 54.571 170.79 55.3446C170.541 54.621 170.274 54.2084 170.276 53.8022C170.281 51.4518 171.298 49.3993 172.282 47.3426C173.02 45.8042 173.69 44.2353 174.428 42.6914C174.971 41.5624 175.654 40.5005 175.156 39.1359C175.099 38.9804 175.594 38.5428 175.903 38.3512C177.291 37.4934 177.913 36.2205 178.193 34.6519C178.417 33.4002 178.835 32.1785 179.229 30.9649C179.561 29.9465 183.061 28.7617 183.644 29.5822C184.143 30.2878 184.296 31.5101 184.089 32.3737C183.759 33.722 182.956 34.9555 182.423 36.2616C182.248 36.6954 182.286 37.2166 182.228 37.6762C185.593 37.7377 187.064 35.572 188.288 32.9579C189.011 31.4121 189.14 29.4674 190.916 28.5431C191.639 28.1674 192.366 27.7152 193.149 27.5612C193.453 27.5007 194.215 28.1625 194.223 28.4985C194.233 29.3786 193.966 30.2733 193.757 31.1478C193.451 32.3947 193.11 33.6205 192.74 35.0295Z" fill="white"/>
<path d="M141.795 51.8106C140.511 51.0995 140.503 51.9444 140.335 52.8406C139.942 52.5658 139.625 52.4161 139.397 52.1786C137.721 50.4403 137.863 48.272 138.041 46.1138C138.121 45.1736 138.272 44.2368 138.43 42.9824C137.073 43.075 135.927 43.1448 134.785 43.2315C133.326 43.3389 132.905 44.4613 132.504 45.5972C132.476 45.6816 132.472 45.8073 132.411 45.8492C129.883 47.7333 129.563 51.0161 127.692 53.3125C127.133 53.9947 126.595 54.7343 125.499 54.1019C125.432 54.3735 125.314 54.5728 125.369 54.7006C126.101 56.3859 124.83 57.3242 123.878 58.2094C123.43 58.6254 122.092 58.7809 121.755 58.4473C121.271 57.9689 120.491 57.2279 121.243 56.1032C122.84 53.7173 124.342 51.2535 125.679 48.7085C126.98 46.2358 128.735 43.9028 128.732 40.9143C128.728 39.7712 129.356 38.9715 130.177 38.339C131.808 37.0779 132.695 35.3605 133.593 33.5566C134.586 31.5614 135.904 29.7282 137.109 27.8367C137.212 27.6739 137.493 27.6269 137.696 27.5372C139.691 26.6131 142.72 28.6921 142.638 30.8679C142.592 32.1035 142.598 33.3622 142.803 34.569C142.877 34.9848 143.59 35.4702 144.097 35.589C145.532 35.9291 145.99 36.5636 145.587 37.9354C145.454 38.3801 144.718 38.8586 145.589 39.309C145.426 39.5576 145.297 39.8434 145.09 40.048C144.913 40.229 144.643 40.3213 144.426 40.4752C143.305 41.2623 142.433 41.9928 142.546 43.7099C142.647 45.2606 141.952 46.8593 141.636 48.4454C141.543 48.9226 141.514 49.4187 141.535 49.9047C141.564 50.4577 141.682 51 141.795 51.8106ZM136.161 37.4068C137.542 37.6137 138.759 37.6298 139.147 36.4702C139.577 35.1897 139.549 33.7579 139.721 32.39C139.586 32.3344 139.444 32.2835 139.308 32.228C137.966 33.6793 136.883 35.3005 136.161 37.4068Z" fill="white"/>
<path d="M167.718 23.7021C168.014 24.3162 168.316 24.9256 168.599 25.5106C165.795 27.7553 162.548 28.6808 159.048 28.9869C158.61 29.025 158.02 29.5219 157.834 29.9489C156.711 32.4935 155.683 35.0773 154.633 37.6531C153.386 40.7092 152.118 43.7518 150.917 46.8249C150.642 47.5317 150.706 48.3693 150.447 49.0781C150.081 50.0592 149.553 50.9868 149.098 51.9347C148.928 51.8913 148.757 51.8533 148.581 51.8092C148.541 51.2988 148.496 50.7823 148.452 50.1779C148.06 50.1011 147.631 50.0196 147.175 49.9346C146.696 51.9506 146.266 53.8793 145.756 55.7925C145.58 56.446 145.236 57.0783 144.867 57.6525C144.785 57.7849 144.183 57.7695 143.993 57.6138C143.256 57.0155 143.414 55.7171 144.204 54.9818C144.653 54.5604 145.398 54.182 144.534 53.4085C144.381 53.2738 144.502 52.7068 144.639 52.4054C145.046 51.4845 145.526 50.6002 145.974 49.7009C146.011 49.6232 146.045 49.5286 146.045 49.4407C146.077 46.4841 147.27 43.7287 148.413 41.1977C149.466 38.8585 149.553 36.2987 150.766 34.0787C151.101 33.4673 151.42 32.8099 151.549 32.1341C151.775 30.9101 151.113 30.3653 149.882 30.6331C149.498 30.7165 149.113 30.8932 148.729 30.8942C147.204 30.8778 146.854 30.5536 147.045 29.0451C147.185 27.9312 147.48 26.8094 147.882 25.756C148.119 25.1377 148.548 25.1314 149.373 25.3891C150.61 25.7756 152.096 25.5291 153.448 25.3533C155.794 25.0447 158.121 24.5746 160.46 24.1937C161.907 23.9585 163.356 23.7511 164.808 23.5606C165.813 23.4291 166.822 23.3585 167.828 23.2602C167.783 23.4027 167.748 23.5521 167.718 23.7021Z" fill="white"/>
<path d="M172.028 29.3684C172.109 29.7741 172.135 30.129 172.259 30.4522C173.008 32.4471 172.349 34.8853 170.67 36.1788C170.262 36.4954 169.81 36.768 169.421 37.109C168.452 37.9537 167.621 37.7061 166.972 36.751C166.518 36.084 166.232 36.004 165.747 36.7119C164.34 38.7647 162.754 40.7126 161.512 42.8576C160.739 44.1993 160.457 45.8227 159.865 47.5992C163.403 45.7655 166.021 43.5138 168.16 40.6687C168.522 40.1926 169.376 40.0805 169.999 39.802C170.073 39.9156 170.151 40.0353 170.224 40.149C170.111 40.3983 169.998 40.6422 169.838 40.9956C170.314 40.9677 170.729 40.9431 170.983 40.9257C170.787 45.2734 167.409 47.3249 164.507 49.7332C163.372 50.6723 162.214 51.5864 161.036 52.4761C160.702 52.7306 160.213 53.0755 159.894 52.9968C158.733 52.7077 157.716 52.7993 156.73 53.5155C156.633 53.5857 156.131 53.3411 156.062 53.1511C155.628 51.9759 154.928 50.7726 154.935 49.5816C154.946 45.661 156.371 42.2866 158.663 39.0051C160.324 36.6327 161.883 34.2035 164.149 32.4787C165.984 31.084 168.221 30.196 170.332 29.1876C170.741 28.992 171.39 29.288 172.028 29.3684Z" fill="white"/>
</svg>
